<mxfile host="app.diagrams.net" modified="2021-12-08T14:11:45.150Z" agent="5.0 (Windows NT 10.0; Win64; x64) AppleWebKit/537.36 (KHTML, like Gecko) Chrome/96.0.4664.45 Safari/537.36" etag="xtzuMA4iMHQFxR9VIj9L" version="15.9.1" type="github">
  <diagram id="WpugDyYvn8EeGp7OIS5a" name="Page-1">
    <mxGraphModel dx="1788" dy="664" grid="1" gridSize="10" guides="1" tooltips="1" connect="1" arrows="1" fold="1" page="1" pageScale="1" pageWidth="827" pageHeight="1169" math="0" shadow="0">
      <root>
        <mxCell id="0" />
        <mxCell id="1" parent="0" />
        <mxCell id="ZD2GbBzJbw6rys_hTAOi-2" value="Valutazione" style="whiteSpace=wrap;html=1;align=center;" parent="1" vertex="1">
          <mxGeometry x="-690" y="240" width="100" height="40" as="geometry" />
        </mxCell>
        <mxCell id="ZD2GbBzJbw6rys_hTAOi-3" value="&lt;u&gt;Seriale&lt;/u&gt;" style="whiteSpace=wrap;html=1;align=center;" parent="1" vertex="1">
          <mxGeometry x="-790" y="240" width="100" height="40" as="geometry" />
        </mxCell>
        <mxCell id="ZD2GbBzJbw6rys_hTAOi-4" value="MACCHINARIO" style="text;html=1;strokeColor=none;fillColor=none;align=center;verticalAlign=middle;whiteSpace=wrap;rounded=0;" parent="1" vertex="1">
          <mxGeometry x="-787" y="210" width="80" height="30" as="geometry" />
        </mxCell>
        <mxCell id="ZD2GbBzJbw6rys_hTAOi-5" value="Lotto" style="whiteSpace=wrap;html=1;align=center;" parent="1" vertex="1">
          <mxGeometry x="-590" y="240" width="100" height="40" as="geometry" />
        </mxCell>
        <mxCell id="ZD2GbBzJbw6rys_hTAOi-6" value="Problematiche&lt;span style=&quot;color: rgba(0 , 0 , 0 , 0) ; font-family: monospace ; font-size: 0px&quot;&gt;%3CmxGraphModel%3E%3Croot%3E%3CmxCell%20id%3D%220%22%2F%3E%3CmxCell%20id%3D%221%22%20parent%3D%220%22%2F%3E%3CmxCell%20id%3D%222%22%20value%3D%22Entity%22%20style%3D%22whiteSpace%3Dwrap%3Bhtml%3D1%3Balign%3Dcenter%3B%22%20vertex%3D%221%22%20parent%3D%221%22%3E%3CmxGeometry%20x%3D%22320%22%20y%3D%22290%22%20width%3D%22100%22%20height%3D%2240%22%20as%3D%22geometry%22%2F%3E%3C%2FmxCell%3E%3C%2Froot%3E%3C%2FmxGraphModel%3E&lt;/span&gt;" style="whiteSpace=wrap;html=1;align=center;" parent="1" vertex="1">
          <mxGeometry x="-490" y="240" width="100" height="40" as="geometry" />
        </mxCell>
        <mxCell id="ZD2GbBzJbw6rys_hTAOi-7" value="Descrizione" style="whiteSpace=wrap;html=1;align=center;" parent="1" vertex="1">
          <mxGeometry x="-390" y="240" width="100" height="40" as="geometry" />
        </mxCell>
        <mxCell id="ZD2GbBzJbw6rys_hTAOi-8" value="#Accessori*" style="whiteSpace=wrap;html=1;align=center;" parent="1" vertex="1">
          <mxGeometry x="-290" y="240" width="100" height="40" as="geometry" />
        </mxCell>
        <mxCell id="ZD2GbBzJbw6rys_hTAOi-9" value="Prezzo" style="whiteSpace=wrap;html=1;align=center;" parent="1" vertex="1">
          <mxGeometry x="-190" y="240" width="100" height="40" as="geometry" />
        </mxCell>
        <mxCell id="ZD2GbBzJbw6rys_hTAOi-10" value="ApplicabilitàMul" style="whiteSpace=wrap;html=1;align=center;" parent="1" vertex="1">
          <mxGeometry x="140" y="400" width="100" height="40" as="geometry" />
        </mxCell>
        <mxCell id="ZD2GbBzJbw6rys_hTAOi-11" value="DestinazioneUso" style="whiteSpace=wrap;html=1;align=center;" parent="1" vertex="1">
          <mxGeometry x="40" y="400" width="100" height="40" as="geometry" />
        </mxCell>
        <mxCell id="ZD2GbBzJbw6rys_hTAOi-12" value="&lt;u&gt;NomeCat&lt;/u&gt;" style="whiteSpace=wrap;html=1;align=center;" parent="1" vertex="1">
          <mxGeometry x="-60" y="400" width="100" height="40" as="geometry" />
        </mxCell>
        <mxCell id="ZD2GbBzJbw6rys_hTAOi-13" value="ACCESSORIA" style="text;html=1;strokeColor=none;fillColor=none;align=center;verticalAlign=middle;whiteSpace=wrap;rounded=0;" parent="1" vertex="1">
          <mxGeometry x="-50" y="370" width="60" height="30" as="geometry" />
        </mxCell>
        <mxCell id="ZD2GbBzJbw6rys_hTAOi-14" value="DestinazioneUso" style="whiteSpace=wrap;html=1;align=center;" parent="1" vertex="1">
          <mxGeometry x="40" y="570" width="100" height="40" as="geometry" />
        </mxCell>
        <mxCell id="ZD2GbBzJbw6rys_hTAOi-15" value="&lt;u&gt;NomeCat&lt;/u&gt;" style="whiteSpace=wrap;html=1;align=center;" parent="1" vertex="1">
          <mxGeometry x="-60" y="570" width="100" height="40" as="geometry" />
        </mxCell>
        <mxCell id="ZD2GbBzJbw6rys_hTAOi-16" value="BASE" style="text;html=1;strokeColor=none;fillColor=none;align=center;verticalAlign=middle;whiteSpace=wrap;rounded=0;" parent="1" vertex="1">
          <mxGeometry x="-50" y="540" width="50" height="30" as="geometry" />
        </mxCell>
        <mxCell id="ZD2GbBzJbw6rys_hTAOi-17" value="Lunghezza" style="whiteSpace=wrap;html=1;align=center;" parent="1" vertex="1">
          <mxGeometry x="140" y="570" width="100" height="40" as="geometry" />
        </mxCell>
        <mxCell id="ZD2GbBzJbw6rys_hTAOi-18" value="Larghezza" style="whiteSpace=wrap;html=1;align=center;" parent="1" vertex="1">
          <mxGeometry x="240" y="570" width="100" height="40" as="geometry" />
        </mxCell>
        <mxCell id="ZD2GbBzJbw6rys_hTAOi-19" value="Altezza" style="whiteSpace=wrap;html=1;align=center;" parent="1" vertex="1">
          <mxGeometry x="340" y="570" width="100" height="40" as="geometry" />
        </mxCell>
        <mxCell id="ZD2GbBzJbw6rys_hTAOi-20" value="Trattamenti" style="whiteSpace=wrap;html=1;align=center;" parent="1" vertex="1">
          <mxGeometry x="440" y="570" width="100" height="40" as="geometry" />
        </mxCell>
        <mxCell id="ZD2GbBzJbw6rys_hTAOi-22" value="#Acquisti" style="whiteSpace=wrap;html=1;align=center;" parent="1" vertex="1">
          <mxGeometry x="10" y="70" width="100" height="40" as="geometry" />
        </mxCell>
        <mxCell id="ZD2GbBzJbw6rys_hTAOi-23" value="&lt;u&gt;CF&lt;/u&gt;" style="whiteSpace=wrap;html=1;align=center;" parent="1" vertex="1">
          <mxGeometry x="-90" y="70" width="100" height="40" as="geometry" />
        </mxCell>
        <mxCell id="ZD2GbBzJbw6rys_hTAOi-24" value="CLIENTE" style="text;html=1;strokeColor=none;fillColor=none;align=center;verticalAlign=middle;whiteSpace=wrap;rounded=0;" parent="1" vertex="1">
          <mxGeometry x="-90" y="40" width="60" height="30" as="geometry" />
        </mxCell>
        <mxCell id="ZD2GbBzJbw6rys_hTAOi-25" value="Nome" style="whiteSpace=wrap;html=1;align=center;" parent="1" vertex="1">
          <mxGeometry x="110" y="70" width="100" height="40" as="geometry" />
        </mxCell>
        <mxCell id="ZD2GbBzJbw6rys_hTAOi-26" value="Cognome" style="whiteSpace=wrap;html=1;align=center;" parent="1" vertex="1">
          <mxGeometry x="210" y="70" width="100" height="40" as="geometry" />
        </mxCell>
        <mxCell id="ZD2GbBzJbw6rys_hTAOi-29" value="Email" style="whiteSpace=wrap;html=1;align=center;" parent="1" vertex="1">
          <mxGeometry x="410" y="70" width="100" height="40" as="geometry" />
        </mxCell>
        <mxCell id="ZD2GbBzJbw6rys_hTAOi-32" value="Telefono" style="whiteSpace=wrap;html=1;align=center;" parent="1" vertex="1">
          <mxGeometry x="310" y="70" width="100" height="40" as="geometry" />
        </mxCell>
        <mxCell id="ZD2GbBzJbw6rys_hTAOi-36" value="Targa" style="whiteSpace=wrap;html=1;align=center;" parent="1" vertex="1">
          <mxGeometry x="110" y="150" width="100" height="40" as="geometry" />
        </mxCell>
        <mxCell id="ZD2GbBzJbw6rys_hTAOi-37" value="&lt;u&gt;CF&lt;/u&gt;" style="whiteSpace=wrap;html=1;align=center;" parent="1" vertex="1">
          <mxGeometry x="10" y="150" width="100" height="40" as="geometry" />
        </mxCell>
        <mxCell id="ZD2GbBzJbw6rys_hTAOi-38" value="CORRIERE" style="text;html=1;strokeColor=none;fillColor=none;align=center;verticalAlign=middle;whiteSpace=wrap;rounded=0;" parent="1" vertex="1">
          <mxGeometry x="10" y="120" width="60" height="30" as="geometry" />
        </mxCell>
        <mxCell id="ZD2GbBzJbw6rys_hTAOi-41" value="Società" style="whiteSpace=wrap;html=1;align=center;" parent="1" vertex="1">
          <mxGeometry x="210" y="150" width="100" height="40" as="geometry" />
        </mxCell>
        <mxCell id="ZD2GbBzJbw6rys_hTAOi-42" value="DataPrimoImp" style="whiteSpace=wrap;html=1;align=center;" parent="1" vertex="1">
          <mxGeometry x="310" y="150" width="100" height="40" as="geometry" />
        </mxCell>
        <mxCell id="x0QkByME8XD4Ap1xWnep-7" style="edgeStyle=orthogonalEdgeStyle;rounded=0;orthogonalLoop=1;jettySize=auto;html=1;entryX=0.25;entryY=1;entryDx=0;entryDy=0;" edge="1" parent="1" source="ZD2GbBzJbw6rys_hTAOi-48" target="ZD2GbBzJbw6rys_hTAOi-3">
          <mxGeometry relative="1" as="geometry" />
        </mxCell>
        <mxCell id="ZD2GbBzJbw6rys_hTAOi-48" value="&lt;u&gt;&lt;font size=&quot;1&quot;&gt;Seriale_macchinario&lt;/font&gt;&lt;/u&gt;" style="whiteSpace=wrap;html=1;align=center;" parent="1" vertex="1">
          <mxGeometry x="-690" y="340" width="100" height="40" as="geometry" />
        </mxCell>
        <mxCell id="ZD2GbBzJbw6rys_hTAOi-49" value="&lt;u&gt;#Progressivo&lt;/u&gt;" style="whiteSpace=wrap;html=1;align=center;" parent="1" vertex="1">
          <mxGeometry x="-790" y="340" width="100" height="40" as="geometry" />
        </mxCell>
        <mxCell id="ZD2GbBzJbw6rys_hTAOi-50" value="INTERVENTO" style="text;html=1;strokeColor=none;fillColor=none;align=center;verticalAlign=middle;whiteSpace=wrap;rounded=0;" parent="1" vertex="1">
          <mxGeometry x="-790" y="310" width="80" height="30" as="geometry" />
        </mxCell>
        <mxCell id="ZD2GbBzJbw6rys_hTAOi-51" value="Sostituzione" style="whiteSpace=wrap;html=1;align=center;" parent="1" vertex="1">
          <mxGeometry x="-590" y="340" width="100" height="40" as="geometry" />
        </mxCell>
        <mxCell id="ZD2GbBzJbw6rys_hTAOi-52" value="Stato" style="whiteSpace=wrap;html=1;align=center;" parent="1" vertex="1">
          <mxGeometry x="-490" y="340" width="100" height="40" as="geometry" />
        </mxCell>
        <mxCell id="ZD2GbBzJbw6rys_hTAOi-53" value="DataArrivo" style="whiteSpace=wrap;html=1;align=center;" parent="1" vertex="1">
          <mxGeometry x="-390" y="340" width="100" height="40" as="geometry" />
        </mxCell>
        <mxCell id="ZD2GbBzJbw6rys_hTAOi-54" value="DataFine*" style="whiteSpace=wrap;html=1;align=center;" parent="1" vertex="1">
          <mxGeometry x="-290" y="340" width="100" height="40" as="geometry" />
        </mxCell>
        <mxCell id="ZD2GbBzJbw6rys_hTAOi-55" value="Tipo" style="whiteSpace=wrap;html=1;align=center;" parent="1" vertex="1">
          <mxGeometry x="-690" y="530" width="100" height="40" as="geometry" />
        </mxCell>
        <mxCell id="ZD2GbBzJbw6rys_hTAOi-56" value="&lt;u&gt;&lt;b&gt;ID&lt;/b&gt;&lt;/u&gt;" style="whiteSpace=wrap;html=1;align=center;" parent="1" vertex="1">
          <mxGeometry x="-790" y="530" width="100" height="40" as="geometry" />
        </mxCell>
        <mxCell id="ZD2GbBzJbw6rys_hTAOi-57" value="PROGETTO" style="text;html=1;strokeColor=none;fillColor=none;align=center;verticalAlign=middle;whiteSpace=wrap;rounded=0;" parent="1" vertex="1">
          <mxGeometry x="-790" y="500" width="70" height="30" as="geometry" />
        </mxCell>
        <mxCell id="ZD2GbBzJbw6rys_hTAOi-59" value="TipoContratto" style="whiteSpace=wrap;html=1;align=center;" parent="1" vertex="1">
          <mxGeometry x="-687" y="700" width="100" height="40" as="geometry" />
        </mxCell>
        <mxCell id="ZD2GbBzJbw6rys_hTAOi-60" value="&lt;u&gt;Matricola&lt;/u&gt;" style="whiteSpace=wrap;html=1;align=center;" parent="1" vertex="1">
          <mxGeometry x="-787" y="700" width="100" height="40" as="geometry" />
        </mxCell>
        <mxCell id="ZD2GbBzJbw6rys_hTAOi-61" value="DIPENDENTE" style="text;html=1;strokeColor=none;fillColor=none;align=center;verticalAlign=middle;whiteSpace=wrap;rounded=0;" parent="1" vertex="1">
          <mxGeometry x="-787" y="670" width="80" height="30" as="geometry" />
        </mxCell>
        <mxCell id="ZD2GbBzJbw6rys_hTAOi-62" value="&lt;font style=&quot;font-size: 11px&quot;&gt;AlboProfessionale &lt;/font&gt;*" style="whiteSpace=wrap;html=1;align=center;" parent="1" vertex="1">
          <mxGeometry x="-587" y="700" width="100" height="40" as="geometry" />
        </mxCell>
        <mxCell id="ZD2GbBzJbw6rys_hTAOi-63" value="&lt;font style=&quot;font-size: 11px&quot;&gt;OreManutenzione &lt;/font&gt;*" style="whiteSpace=wrap;html=1;align=center;" parent="1" vertex="1">
          <mxGeometry x="-487" y="700" width="100" height="40" as="geometry" />
        </mxCell>
        <mxCell id="ZD2GbBzJbw6rys_hTAOi-64" value="Disponibilità *" style="whiteSpace=wrap;html=1;align=center;" parent="1" vertex="1">
          <mxGeometry x="-387" y="700" width="100" height="40" as="geometry" />
        </mxCell>
        <mxCell id="ZD2GbBzJbw6rys_hTAOi-65" value="&lt;font style=&quot;font-size: 11px&quot;&gt;Specializzazione &lt;/font&gt;*" style="whiteSpace=wrap;html=1;align=center;" parent="1" vertex="1">
          <mxGeometry x="-287" y="700" width="100" height="40" as="geometry" />
        </mxCell>
        <mxCell id="ZD2GbBzJbw6rys_hTAOi-66" value="CF" style="whiteSpace=wrap;html=1;align=center;" parent="1" vertex="1">
          <mxGeometry x="-690" y="800" width="100" height="40" as="geometry" />
        </mxCell>
        <mxCell id="ZD2GbBzJbw6rys_hTAOi-77" style="edgeStyle=orthogonalEdgeStyle;rounded=0;orthogonalLoop=1;jettySize=auto;html=1;exitX=0;exitY=0.5;exitDx=0;exitDy=0;entryX=0;entryY=0.75;entryDx=0;entryDy=0;" parent="1" source="ZD2GbBzJbw6rys_hTAOi-67" target="ZD2GbBzJbw6rys_hTAOi-60" edge="1">
          <mxGeometry relative="1" as="geometry" />
        </mxCell>
        <mxCell id="ZD2GbBzJbw6rys_hTAOi-67" value="&lt;u&gt;Matricola_Dip&lt;/u&gt;" style="whiteSpace=wrap;html=1;align=center;" parent="1" vertex="1">
          <mxGeometry x="-790" y="800" width="100" height="40" as="geometry" />
        </mxCell>
        <mxCell id="ZD2GbBzJbw6rys_hTAOi-68" value="SCHEDA DIPENDENTE" style="text;html=1;strokeColor=none;fillColor=none;align=center;verticalAlign=middle;whiteSpace=wrap;rounded=0;" parent="1" vertex="1">
          <mxGeometry x="-780" y="770" width="140" height="30" as="geometry" />
        </mxCell>
        <mxCell id="ZD2GbBzJbw6rys_hTAOi-69" value="Nome" style="whiteSpace=wrap;html=1;align=center;" parent="1" vertex="1">
          <mxGeometry x="-590" y="800" width="100" height="40" as="geometry" />
        </mxCell>
        <mxCell id="ZD2GbBzJbw6rys_hTAOi-70" value="Cognome" style="whiteSpace=wrap;html=1;align=center;" parent="1" vertex="1">
          <mxGeometry x="-490" y="800" width="100" height="40" as="geometry" />
        </mxCell>
        <mxCell id="ZD2GbBzJbw6rys_hTAOi-71" value="Email" style="whiteSpace=wrap;html=1;align=center;" parent="1" vertex="1">
          <mxGeometry x="-390" y="800" width="100" height="40" as="geometry" />
        </mxCell>
        <mxCell id="ZD2GbBzJbw6rys_hTAOi-72" value="Telefono" style="whiteSpace=wrap;html=1;align=center;" parent="1" vertex="1">
          <mxGeometry x="-290" y="800" width="100" height="40" as="geometry" />
        </mxCell>
        <mxCell id="x0QkByME8XD4Ap1xWnep-1" style="edgeStyle=orthogonalEdgeStyle;rounded=0;orthogonalLoop=1;jettySize=auto;html=1;entryX=0.5;entryY=1;entryDx=0;entryDy=0;" edge="1" parent="1" source="ZD2GbBzJbw6rys_hTAOi-78" target="ZD2GbBzJbw6rys_hTAOi-23">
          <mxGeometry relative="1" as="geometry" />
        </mxCell>
        <mxCell id="ZD2GbBzJbw6rys_hTAOi-78" value="CF_Cliente*" style="whiteSpace=wrap;html=1;align=center;" parent="1" vertex="1">
          <mxGeometry x="-90" y="240" width="100" height="40" as="geometry" />
        </mxCell>
        <mxCell id="x0QkByME8XD4Ap1xWnep-10" style="edgeStyle=orthogonalEdgeStyle;rounded=0;orthogonalLoop=1;jettySize=auto;html=1;entryX=0;entryY=0.5;entryDx=0;entryDy=0;" edge="1" parent="1" source="ZD2GbBzJbw6rys_hTAOi-81" target="ZD2GbBzJbw6rys_hTAOi-15">
          <mxGeometry relative="1" as="geometry">
            <Array as="points">
              <mxPoint x="60" y="320" />
              <mxPoint x="-100" y="320" />
              <mxPoint x="-100" y="590" />
            </Array>
          </mxGeometry>
        </mxCell>
        <mxCell id="ZD2GbBzJbw6rys_hTAOi-81" value="isBase*" style="whiteSpace=wrap;html=1;align=center;" parent="1" vertex="1">
          <mxGeometry x="10" y="240" width="100" height="40" as="geometry" />
        </mxCell>
        <mxCell id="ZD2GbBzJbw6rys_hTAOi-89" style="edgeStyle=orthogonalEdgeStyle;rounded=0;orthogonalLoop=1;jettySize=auto;html=1;exitX=0.5;exitY=1;exitDx=0;exitDy=0;entryX=0;entryY=0.5;entryDx=0;entryDy=0;" parent="1" source="ZD2GbBzJbw6rys_hTAOi-82" target="ZD2GbBzJbw6rys_hTAOi-12" edge="1">
          <mxGeometry relative="1" as="geometry" />
        </mxCell>
        <mxCell id="ZD2GbBzJbw6rys_hTAOi-82" value="isAccessoria*" style="whiteSpace=wrap;html=1;align=center;" parent="1" vertex="1">
          <mxGeometry x="110" y="240" width="100" height="40" as="geometry" />
        </mxCell>
        <mxCell id="x0QkByME8XD4Ap1xWnep-2" style="edgeStyle=orthogonalEdgeStyle;rounded=0;orthogonalLoop=1;jettySize=auto;html=1;entryX=0.5;entryY=1;entryDx=0;entryDy=0;" edge="1" parent="1" source="ZD2GbBzJbw6rys_hTAOi-83">
          <mxGeometry relative="1" as="geometry">
            <mxPoint x="60" y="190" as="targetPoint" />
            <Array as="points">
              <mxPoint x="260" y="220" />
              <mxPoint x="60" y="220" />
            </Array>
          </mxGeometry>
        </mxCell>
        <mxCell id="ZD2GbBzJbw6rys_hTAOi-83" value="CF_corriere*" style="whiteSpace=wrap;html=1;align=center;" parent="1" vertex="1">
          <mxGeometry x="210" y="240" width="100" height="40" as="geometry" />
        </mxCell>
        <mxCell id="ZD2GbBzJbw6rys_hTAOi-109" style="edgeStyle=orthogonalEdgeStyle;rounded=0;orthogonalLoop=1;jettySize=auto;html=1;exitX=0.5;exitY=1;exitDx=0;exitDy=0;entryX=0.75;entryY=0;entryDx=0;entryDy=0;fontSize=11;" parent="1" source="ZD2GbBzJbw6rys_hTAOi-85" target="ZD2GbBzJbw6rys_hTAOi-15" edge="1">
          <mxGeometry relative="1" as="geometry" />
        </mxCell>
        <mxCell id="ZD2GbBzJbw6rys_hTAOi-85" value="&lt;u&gt;NomeCat_Base&lt;/u&gt;" style="whiteSpace=wrap;html=1;align=center;" parent="1" vertex="1">
          <mxGeometry x="40" y="490" width="100" height="40" as="geometry" />
        </mxCell>
        <mxCell id="ZD2GbBzJbw6rys_hTAOi-110" style="edgeStyle=orthogonalEdgeStyle;rounded=0;orthogonalLoop=1;jettySize=auto;html=1;exitX=-0.004;exitY=0.628;exitDx=0;exitDy=0;entryX=0.5;entryY=1;entryDx=0;entryDy=0;fontSize=11;exitPerimeter=0;" parent="1" source="ZD2GbBzJbw6rys_hTAOi-86" target="ZD2GbBzJbw6rys_hTAOi-12" edge="1">
          <mxGeometry relative="1" as="geometry">
            <Array as="points">
              <mxPoint x="-80" y="515" />
              <mxPoint x="-80" y="460" />
              <mxPoint x="-10" y="460" />
            </Array>
          </mxGeometry>
        </mxCell>
        <mxCell id="ZD2GbBzJbw6rys_hTAOi-86" value="&lt;u&gt;NomeCat_Acc&lt;/u&gt;" style="whiteSpace=wrap;html=1;align=center;" parent="1" vertex="1">
          <mxGeometry x="-60" y="490" width="100" height="40" as="geometry" />
        </mxCell>
        <mxCell id="ZD2GbBzJbw6rys_hTAOi-87" value="ASSOCIAZIONE" style="text;html=1;strokeColor=none;fillColor=none;align=center;verticalAlign=middle;whiteSpace=wrap;rounded=0;" parent="1" vertex="1">
          <mxGeometry x="-60" y="460" width="90" height="30" as="geometry" />
        </mxCell>
        <mxCell id="ZD2GbBzJbw6rys_hTAOi-92" value="Nome" style="whiteSpace=wrap;html=1;align=center;" parent="1" vertex="1">
          <mxGeometry x="410" y="150" width="100" height="40" as="geometry" />
        </mxCell>
        <mxCell id="ZD2GbBzJbw6rys_hTAOi-93" value="Cognome" style="whiteSpace=wrap;html=1;align=center;" parent="1" vertex="1">
          <mxGeometry x="510" y="150" width="100" height="40" as="geometry" />
        </mxCell>
        <mxCell id="ZD2GbBzJbw6rys_hTAOi-94" value="Email" style="whiteSpace=wrap;html=1;align=center;" parent="1" vertex="1">
          <mxGeometry x="610" y="150" width="100" height="40" as="geometry" />
        </mxCell>
        <mxCell id="ZD2GbBzJbw6rys_hTAOi-95" value="Telefono" style="whiteSpace=wrap;html=1;align=center;" parent="1" vertex="1">
          <mxGeometry x="710" y="150" width="100" height="40" as="geometry" />
        </mxCell>
        <mxCell id="ZD2GbBzJbw6rys_hTAOi-112" style="edgeStyle=orthogonalEdgeStyle;rounded=0;orthogonalLoop=1;jettySize=auto;html=1;exitX=1;exitY=0.5;exitDx=0;exitDy=0;fontSize=11;entryX=0;entryY=0.5;entryDx=0;entryDy=0;" parent="1" source="ZD2GbBzJbw6rys_hTAOi-96" target="ZD2GbBzJbw6rys_hTAOi-3" edge="1">
          <mxGeometry relative="1" as="geometry">
            <mxPoint x="-800" y="160" as="targetPoint" />
            <Array as="points">
              <mxPoint x="-470" y="550" />
              <mxPoint x="-470" y="500" />
              <mxPoint x="-810" y="500" />
              <mxPoint x="-810" y="260" />
            </Array>
          </mxGeometry>
        </mxCell>
        <mxCell id="ZD2GbBzJbw6rys_hTAOi-96" value="Seriale_macc" style="whiteSpace=wrap;html=1;align=center;" parent="1" vertex="1">
          <mxGeometry x="-590" y="530" width="100" height="40" as="geometry" />
        </mxCell>
        <mxCell id="ZD2GbBzJbw6rys_hTAOi-97" value="&lt;font style=&quot;font-size: 11px&quot;&gt;DataInizio&lt;/font&gt;" style="whiteSpace=wrap;html=1;align=center;" parent="1" vertex="1">
          <mxGeometry x="-690" y="440" width="100" height="40" as="geometry" />
        </mxCell>
        <mxCell id="ZD2GbBzJbw6rys_hTAOi-98" value="Ore" style="whiteSpace=wrap;html=1;align=center;" parent="1" vertex="1">
          <mxGeometry x="-790" y="440" width="100" height="40" as="geometry" />
        </mxCell>
        <mxCell id="ZD2GbBzJbw6rys_hTAOi-99" value="COINVOLGIMENTO" style="text;html=1;strokeColor=none;fillColor=none;align=center;verticalAlign=middle;whiteSpace=wrap;rounded=0;" parent="1" vertex="1">
          <mxGeometry x="-790" y="410" width="110" height="30" as="geometry" />
        </mxCell>
        <mxCell id="ZD2GbBzJbw6rys_hTAOi-100" value="DataFine*" style="whiteSpace=wrap;html=1;align=center;" parent="1" vertex="1">
          <mxGeometry x="-590" y="440" width="100" height="40" as="geometry" />
        </mxCell>
        <mxCell id="x0QkByME8XD4Ap1xWnep-4" style="edgeStyle=orthogonalEdgeStyle;rounded=0;orthogonalLoop=1;jettySize=auto;html=1;entryX=0.89;entryY=0.025;entryDx=0;entryDy=0;entryPerimeter=0;" edge="1" parent="1" source="ZD2GbBzJbw6rys_hTAOi-101" target="ZD2GbBzJbw6rys_hTAOi-60">
          <mxGeometry relative="1" as="geometry">
            <Array as="points">
              <mxPoint x="-440" y="685" />
              <mxPoint x="-698" y="685" />
            </Array>
          </mxGeometry>
        </mxCell>
        <mxCell id="ZD2GbBzJbw6rys_hTAOi-101" value="&lt;u&gt;Matricola_Dip&lt;/u&gt;" style="whiteSpace=wrap;html=1;align=center;" parent="1" vertex="1">
          <mxGeometry x="-490" y="440" width="100" height="40" as="geometry" />
        </mxCell>
        <mxCell id="x0QkByME8XD4Ap1xWnep-5" style="edgeStyle=orthogonalEdgeStyle;rounded=0;orthogonalLoop=1;jettySize=auto;html=1;entryX=0.5;entryY=1;entryDx=0;entryDy=0;" edge="1" parent="1" source="ZD2GbBzJbw6rys_hTAOi-102" target="ZD2GbBzJbw6rys_hTAOi-49">
          <mxGeometry relative="1" as="geometry">
            <Array as="points">
              <mxPoint x="-340" y="400" />
              <mxPoint x="-740" y="400" />
            </Array>
          </mxGeometry>
        </mxCell>
        <mxCell id="ZD2GbBzJbw6rys_hTAOi-102" value="&lt;u&gt;#Intervento&lt;/u&gt;" style="whiteSpace=wrap;html=1;align=center;" parent="1" vertex="1">
          <mxGeometry x="-390" y="440" width="100" height="40" as="geometry" />
        </mxCell>
        <mxCell id="x0QkByME8XD4Ap1xWnep-6" style="edgeStyle=orthogonalEdgeStyle;rounded=0;orthogonalLoop=1;jettySize=auto;html=1;entryX=0.75;entryY=1;entryDx=0;entryDy=0;" edge="1" parent="1" source="ZD2GbBzJbw6rys_hTAOi-103" target="ZD2GbBzJbw6rys_hTAOi-3">
          <mxGeometry relative="1" as="geometry">
            <Array as="points">
              <mxPoint x="-170" y="460" />
              <mxPoint x="-170" y="300" />
              <mxPoint x="-715" y="300" />
            </Array>
          </mxGeometry>
        </mxCell>
        <mxCell id="ZD2GbBzJbw6rys_hTAOi-103" value="&lt;u&gt;Seriale_Macc&lt;/u&gt;" style="whiteSpace=wrap;html=1;align=center;" parent="1" vertex="1">
          <mxGeometry x="-290" y="440" width="100" height="40" as="geometry" />
        </mxCell>
        <mxCell id="x0QkByME8XD4Ap1xWnep-3" style="edgeStyle=orthogonalEdgeStyle;rounded=0;orthogonalLoop=1;jettySize=auto;html=1;entryX=0;entryY=0.25;entryDx=0;entryDy=0;" edge="1" parent="1" source="ZD2GbBzJbw6rys_hTAOi-115" target="ZD2GbBzJbw6rys_hTAOi-60">
          <mxGeometry relative="1" as="geometry">
            <Array as="points">
              <mxPoint x="-637" y="670" />
              <mxPoint x="-807" y="670" />
              <mxPoint x="-807" y="710" />
            </Array>
          </mxGeometry>
        </mxCell>
        <mxCell id="ZD2GbBzJbw6rys_hTAOi-115" value="&lt;u&gt;Matricola_Dip&lt;/u&gt;" style="whiteSpace=wrap;html=1;align=center;" parent="1" vertex="1">
          <mxGeometry x="-687" y="610" width="100" height="40" as="geometry" />
        </mxCell>
        <mxCell id="ZD2GbBzJbw6rys_hTAOi-123" style="edgeStyle=orthogonalEdgeStyle;rounded=0;orthogonalLoop=1;jettySize=auto;html=1;exitX=0;exitY=0.25;exitDx=0;exitDy=0;entryX=0;entryY=0.5;entryDx=0;entryDy=0;fontSize=11;" parent="1" source="ZD2GbBzJbw6rys_hTAOi-116" target="ZD2GbBzJbw6rys_hTAOi-56" edge="1">
          <mxGeometry relative="1" as="geometry" />
        </mxCell>
        <mxCell id="ZD2GbBzJbw6rys_hTAOi-116" value="&lt;u&gt;ID_Progetto&lt;/u&gt;" style="whiteSpace=wrap;html=1;align=center;" parent="1" vertex="1">
          <mxGeometry x="-787" y="610" width="100" height="40" as="geometry" />
        </mxCell>
        <mxCell id="ZD2GbBzJbw6rys_hTAOi-117" value="PARTECIPAZIONE" style="text;html=1;strokeColor=none;fillColor=none;align=center;verticalAlign=middle;whiteSpace=wrap;rounded=0;" parent="1" vertex="1">
          <mxGeometry x="-767" y="580" width="60" height="30" as="geometry" />
        </mxCell>
      </root>
    </mxGraphModel>
  </diagram>
</mxfile>
